<svg width="23" height="37" viewBox="0 0 23 37" fill="none" xmlns="http://www.w3.org/2000/svg">
<path d="M16.1 6.9V24.15H6.9V6.9H16.1ZM19.55 0H3.45C1.54531 0 0 1.54531 0 3.45V33.35C0 35.2547 1.54531 36.8 3.45 36.8H19.55C21.4547 36.8 23 35.2547 23 33.35V3.45C23 1.54531 21.4547 0 19.55 0ZM3.45 34.5C2.8175 34.5 2.3 33.9825 2.3 33.35V3.45C2.3 2.8175 2.8175 2.3 3.45 2.3H19.55C20.1825 2.3 20.7 2.8175 20.7 3.45V33.35C20.7 33.9825 20.1825 34.5 19.55 34.5H3.45ZM17.5375 4.6H5.4625C4.98812 4.6 4.6 4.98812 4.6 5.4625V25.5875C4.6 26.0619 4.98812 26.45 5.4625 26.45H17.5375C18.0119 26.45 18.4 26.0619 18.4 25.5875V5.4625C18.4 4.98812 18.0119 4.6 17.5375 4.6ZM14.0875 29.9H8.9125C8.43812 29.9 8.05 30.2881 8.05 30.7625V31.3375C8.05 31.8119 8.43812 32.2 8.9125 32.2H14.0875C14.5619 32.2 14.95 31.8119 14.95 31.3375V30.7625C14.95 30.2881 14.5619 29.9 14.0875 29.9Z" fill="#F15A29"/>
</svg>
