<svg width="38" height="28" viewBox="0 0 38 28" fill="none" xmlns="http://www.w3.org/2000/svg">
<path d="M33.8333 0H3.5C1.56771 0 0 1.56771 0 3.5V24.5C0 26.4323 1.56771 28 3.5 28H33.8333C35.7656 28 37.3333 26.4323 37.3333 24.5V3.5C37.3333 1.56771 35.7656 0 33.8333 0ZM3.5 2.33333H33.8333C34.475 2.33333 35 2.85833 35 3.5V6.51875C33.4031 7.86771 31.1208 9.72708 24.0187 15.3635C22.7865 16.3406 20.3583 18.6958 18.6667 18.6667C16.975 18.6958 14.5396 16.3406 13.3146 15.3635C6.2125 9.72708 3.93021 7.86771 2.33333 6.51875V3.5C2.33333 2.85833 2.85833 2.33333 3.5 2.33333ZM33.8333 25.6667H3.5C2.85833 25.6667 2.33333 25.1417 2.33333 24.5V9.55208C3.99583 10.9156 6.62083 13.0229 11.8635 17.1865C13.3583 18.3823 15.9979 21.0146 18.6667 21C21.3208 21.0219 23.9385 18.4115 25.4698 17.1865C30.7125 13.0229 33.3375 10.9156 35 9.55208V24.5C35 25.1417 34.475 25.6667 33.8333 25.6667Z" fill="#F15A29"/>
</svg>
