<svg  width="22" height="46" viewBox="0 0 22 46" fill="none" xmlns="http://www.w3.org/2000/svg">
<mask id="path-1-inside-1_30652_31" fill="white">
<path d="M21.5 10.5C21.5 10.6676 21.4961 10.8343 21.4883 11H21.5V36H21.4883C21.2273 41.5668 16.6314 46 11 46C5.36862 46 0.772672 41.5668 0.511695 36H0.5V11H0.511695C0.503927 10.8343 0.5 10.6676 0.5 10.5C0.5 4.70101 5.20101 0 11 0C16.799 0 21.5 4.70101 21.5 10.5Z"/>
</mask>
<path d="M11.1464 37.3536C11.3417 37.5488 11.6583 37.5488 11.8536 37.3536L15.0355 34.1716C15.2308 33.9763 15.2308 33.6597 15.0355 33.4645C14.8403 33.2692 14.5237 33.2692 14.3284 33.4645L11.5 36.2929L8.67157 33.4645C8.47631 33.2692 8.15973 33.2692 7.96447 33.4645C7.7692 33.6597 7.7692 33.9763 7.96447 34.1716L11.1464 37.3536ZM11 10V37H12V10H11ZM21.4883 11L20.4894 10.9532L20.4403 12H21.4883V11ZM21.5 11H22.5V10H21.5V11ZM21.5 36V37H22.5V36H21.5ZM21.4883 36V35H20.5341L20.4894 35.9532L21.4883 36ZM0.511695 36L1.5106 35.9532L1.46591 35H0.511695V36ZM0.5 36H-0.5V37H0.5V36ZM0.5 11V10H-0.5V11H0.5ZM0.511695 11V12H1.55967L1.5106 10.9532L0.511695 11ZM20.5 10.5C20.5 10.652 20.4964 10.8031 20.4894 10.9532L22.4872 11.0468C22.4957 10.8655 22.5 10.6832 22.5 10.5H20.5ZM21.4883 12H21.5V10H21.4883V12ZM21.5 35H21.4883V37H21.5V35ZM20.4894 35.9532C20.2533 40.989 16.0948 45 11 45V47C17.168 47 22.2013 42.1446 22.4872 36.0468L20.4894 35.9532ZM11 45C5.90522 45 1.74668 40.989 1.5106 35.9532L-0.487208 36.0468C-0.201339 42.1446 4.83202 47 11 47V45ZM0.511695 35H0.5V37H0.511695V35ZM0.5 12H0.511695V10H0.5V12ZM1.5106 10.9532C1.50356 10.8031 1.5 10.652 1.5 10.5H-0.5C-0.5 10.6832 -0.495706 10.8655 -0.487208 11.0468L1.5106 10.9532ZM1.5 10.5C1.5 5.25329 5.75329 1 11 1V-1C4.64873 -1 -0.5 4.14873 -0.5 10.5H1.5ZM11 1C16.2467 1 20.5 5.25329 20.5 10.5H22.5C22.5 4.14873 17.3513 -1 11 -1V1ZM20.5 11V36H22.5V11H20.5ZM1.5 36V11H-0.5V36H1.5Z" fill="#FCFCFC" mask="url(#path-1-inside-1_30652_31)"/>
</svg>
