<svg width="198" height="61" viewBox="0 0 198 61" fill="none" xmlns="http://www.w3.org/2000/svg">
<path d="M83 37.5396H74.43L73.05 41.5996H67.18L75.51 18.5996H82L90.33 41.5996H84.39L83 37.5396ZM81.56 33.2196L78.71 24.7896L75.9 33.2196H81.56Z" fill="#0D004C"/>
<path d="M96.64 41.0001C95.3725 40.5006 94.2683 39.6594 93.45 38.5701C92.6316 37.4457 92.1905 36.0909 92.19 34.7001H98.19C98.2129 35.4577 98.5326 36.176 99.08 36.7001C99.6334 37.1774 100.35 37.4212 101.08 37.3801C101.794 37.4232 102.5 37.2183 103.08 36.8001C103.318 36.6114 103.507 36.3687 103.632 36.0922C103.757 35.8157 103.815 35.5133 103.8 35.2101C103.808 34.9484 103.762 34.6877 103.664 34.4449C103.566 34.2021 103.418 33.9825 103.23 33.8001C102.817 33.4167 102.34 33.1087 101.82 32.8901C101.009 32.5427 100.177 32.2455 99.33 32.0001C98.0835 31.6329 96.8667 31.1715 95.69 30.6201C94.7382 30.1517 93.9093 29.4667 93.27 28.6201C92.5589 27.5923 92.2074 26.3584 92.27 25.1101C92.2301 24.1511 92.4209 23.1965 92.8263 22.3265C93.2318 21.4565 93.84 20.6964 94.6 20.1101C96.3552 18.8339 98.4921 18.1922 100.66 18.2901C102.85 18.1865 105.011 18.828 106.79 20.1101C107.558 20.7129 108.18 21.4806 108.611 22.3565C109.042 23.2324 109.271 24.194 109.28 25.1701H103.2C103.191 24.8377 103.114 24.5105 102.973 24.2093C102.832 23.9082 102.63 23.6395 102.38 23.4201C101.831 22.9818 101.142 22.7547 100.44 22.7801C99.8458 22.7542 99.2626 22.9463 98.8 23.3201C98.5898 23.5197 98.4255 23.7626 98.3184 24.0319C98.2114 24.3013 98.1641 24.5907 98.18 24.8801C98.1722 25.2338 98.2613 25.5828 98.4375 25.8895C98.6138 26.1962 98.8705 26.4488 99.18 26.6201C100.225 27.1768 101.324 27.6258 102.46 27.9601C103.696 28.3616 104.906 28.8427 106.08 29.4001C107.024 29.8762 107.848 30.56 108.49 31.4001C109.193 32.3829 109.545 33.5732 109.49 34.7801C109.505 36.0413 109.158 37.2804 108.49 38.3501C107.787 39.456 106.785 40.3401 105.6 40.9001C104.195 41.566 102.654 41.8915 101.1 41.8501C99.5728 41.8532 98.059 41.5647 96.64 41.0001Z" fill="#0D004C"/>
<path d="M132.92 18.5996V41.5996H127.31V32.1296H118.6V41.5996H113V18.5996H118.6V27.5996H127.31V18.5996H132.92Z" fill="#0D004C"/>
<path d="M151.92 18.5996V23.0896H142.55V27.9396H149.55V32.2996H142.55V41.5996H137V18.5996H151.92Z" fill="#0D004C"/>
<path d="M169.19 37.5396H160.61L159.23 41.5996H153.36L161.69 18.5996H168.17L176.5 41.5996H170.57L169.19 37.5396ZM167.75 33.2196L164.9 24.7896L162.08 33.2196H167.75Z" fill="#0D004C"/>
<path d="M190.75 41.5997L186 32.9197H184.66V41.5997H179V18.5997H188.41C190.006 18.5554 191.59 18.8805 193.04 19.5497C194.239 20.1089 195.24 21.0191 195.91 22.1597C196.547 23.2806 196.875 24.5505 196.86 25.8397C196.88 27.3092 196.427 28.7462 195.57 29.9397C194.618 31.1954 193.273 32.0966 191.75 32.4997L197.06 41.5997H190.75ZM184.63 28.9997H188.1C188.516 29.033 188.935 28.9829 189.332 28.8524C189.728 28.7219 190.095 28.5136 190.41 28.2397C190.677 27.9561 190.883 27.6208 191.016 27.2545C191.148 26.8881 191.204 26.4985 191.18 26.1097C191.2 25.7319 191.141 25.3541 191.009 24.9997C190.877 24.6453 190.673 24.322 190.41 24.0497C190.095 23.7758 189.728 23.5675 189.332 23.437C188.935 23.3065 188.516 23.2564 188.1 23.2897H184.63V28.9997Z" fill="#0D004C"/>
<path d="M60.11 31.29C59.7322 31.9295 59.187 32.4537 58.5333 32.8062C57.8795 33.1586 57.1419 33.3259 56.4 33.29C55.8523 33.2685 55.3087 33.1846 54.78 33.04C54.22 32.9 53.66 32.79 53.1 32.68L51.18 32.27L48.89 31.79L46.47 31.29L44.17 30.81L42.23 30.4L40.89 30.12L40.39 30.01H40.47L41.34 29.83L43 29.51L45.12 29.07L47.5 28.57L49.9 28.07L52 27.61C53 27.41 53.9 27.21 54.84 26.99C55.3397 26.8574 55.8532 26.7836 56.37 26.77C57.1167 26.7402 57.8572 26.9155 58.5113 27.2769C59.1653 27.6383 59.7079 28.172 60.08 28.82C59.7706 21.2807 56.6389 14.1331 51.3061 8.79471C45.9734 3.45636 38.829 0.317254 31.29 0C31.9302 0.37695 32.4551 0.921959 32.8076 1.57595C33.1602 2.22994 33.327 2.96796 33.29 3.71C33.2798 4.22314 33.2093 4.73331 33.08 5.23C32.86 6.17 32.65 7.12 32.45 8.07L32 10.24L31.5 12.64L31 15L30.55 17.12L30.21 18.73L30.03 19.6V19.69L29.93 19.19L29.65 17.84L29.24 15.9L28.76 13.6L28.25 11.19L27.77 8.9C27.64 8.26 27.5 7.62 27.37 6.97C27.24 6.32 27.16 5.88 27 5.33C26.8487 4.80237 26.7614 4.25847 26.74 3.71C26.712 2.96013 26.8913 2.21706 27.2583 1.56252C27.6253 0.907978 28.1657 0.367317 28.82 0C21.2757 0.309919 14.124 3.44579 8.78488 8.78488C3.44579 14.124 0.309919 21.2757 0 28.82C0.371273 28.1712 0.91364 27.6369 1.5679 27.2754C2.22215 26.9139 2.96315 26.7391 3.71 26.77C4.22393 26.7868 4.7341 26.864 5.23 27C6.17 27.22 7.12 27.42 8.07 27.62L10.24 28.08L12.64 28.58L15.03 29.08L17.15 29.52L18.76 29.86L19.63 30.04H19.72L19.22 30.15L17.87 30.43L15.93 30.84L13.63 31.32L11.22 31.82L8.93 32.3L7 32.72C6.45 32.83 5.88 32.94 5.33 33.08C4.80094 33.2232 4.2576 33.307 3.71 33.33C2.96796 33.367 2.22994 33.2002 1.57595 32.8476C0.921959 32.4951 0.37695 31.9702 0 31.33C0.319696 38.8672 3.45988 46.0091 8.79798 51.3398C14.1361 56.6705 21.2824 59.8008 28.82 60.11C28.172 59.7379 27.6383 59.1953 27.2769 58.5413C26.9155 57.8872 26.7402 57.1467 26.77 56.4C26.7801 55.8526 26.8573 55.3086 27 54.78C27.13 54.22 27.24 53.66 27.36 53.1C27.48 52.54 27.63 51.82 27.76 51.18L28.24 48.89L28.75 46.47L29.23 44.17L29.64 42.23L30 40.89L30.1 40.39V40.47L30.28 41.34L30.59 43L31 45.08L31.5 47.46L32 49.86L32.49 52C32.69 53 32.9 53.9 33.12 54.84C33.2494 55.3401 33.3198 55.8536 33.33 56.37C33.3659 57.1119 33.1986 57.8495 32.8462 58.5033C32.4937 59.157 31.9695 59.7022 31.33 60.08C38.8622 59.7608 46 56.6249 51.33 51.293C56.66 45.9612 59.7934 38.8224 60.11 31.29ZM27.69 32.52L26.94 33.67L25.86 35.33L24.57 37.33L23.22 39.4L21.94 41.4L20.87 43C20.55 43.48 20.23 44 19.94 44.44C19.6601 44.9211 19.3245 45.3675 18.94 45.77C17.38 47.33 15.07 47.56 13.79 46.28C12.51 45 12.74 42.69 14.3 41.13C14.6746 40.7786 15.0871 40.4701 15.53 40.21C16.35 39.69 17.17 39.21 17.98 38.64L19.84 37.43L21.92 36L23.92 34.67L25.73 33.49L27.12 32.58L27.86 32.1H27.93L27.69 32.52ZM27.54 27.69L26.4 26.94L24.74 25.86L22.74 24.57L20.7 23.22L18.7 21.94L17.1 20.87C16.62 20.55 16.1 20.23 15.66 19.94C15.1823 19.655 14.7364 19.3198 14.33 18.94C12.77 17.38 12.54 15.07 13.82 13.79C15.1 12.51 17.41 12.74 18.97 14.3C19.3215 14.6769 19.6331 15.0891 19.9 15.53C20.41 16.35 20.9 17.17 21.46 17.98L22.68 19.84L24 21.92L25.33 23.92L26.52 25.73L27.42 27.12L27.91 27.86L28 28L27.54 27.69ZM32.14 27.9L32.62 27.16L33.53 25.77L34.71 24L36.04 22L37.39 19.95L38.6 18C39.13 17.19 39.6 16.37 40.17 15.55C40.4301 15.1071 40.7386 14.6946 41.09 14.32C42.65 12.76 44.96 12.53 46.24 13.81C47.52 15.09 47.24 17.4 45.73 18.96C45.3275 19.3445 44.8811 19.6801 44.4 19.96C43.92 20.25 43.4 20.57 42.96 20.89L41.32 21.96L39.32 23.24L37.25 24.59L35.25 25.88L33.59 26.96L32.44 27.71L32.01 27.99L32.14 27.9ZM46.24 46.24C44.96 47.52 42.65 47.24 41.09 45.73C40.7021 45.3305 40.3661 44.8836 40.09 44.4C39.79 43.92 39.47 43.4 39.16 42.96L38.08 41.32L36.8 39.32L35.45 37.25L34.17 35.25L33.08 33.59L32.33 32.44L32.05 32.01H32.12L32.87 32.49L34.25 33.4L36.06 34.58L38.06 35.91L40.06 37.26L41.92 38.47C42.73 39 43.55 39.47 44.37 40.04C44.8145 40.2976 45.2273 40.6064 45.6 40.96C47.29 42.65 47.52 45 46.24 46.24Z" fill="#F15A29"/>
</svg>
